<svg xmlns="http://www.w3.org/2000/svg" style="display: none;">

  <!-- Menu Icons -->
  <symbol id="icon-menu" viewBox="0 0 448 512">
    <path d="M0 96C0 78.3 14.3 64 32 64H416c17.7 0 32 14.3 32 32s-14.3 32-32 32H32C14.3 128 0 113.7 0 96zM0 256c0-17.7 14.3-32 32-32H416c17.7 0 32 14.3 32 32s-14.3 32-32 32H32c-17.7 0-32-14.3-32-32zM448 416c0 17.7-14.3 32-32 32H32c-17.7 0-32-14.3-32-32s14.3-32 32-32H416c17.7 0 32 14.3 32 32z"/>
  </symbol>

  <symbol id="icon-close" viewBox="0 0 384 512">
    <path d="M342.6 150.6c12.5-12.5 12.5-32.8 0-45.3s-32.8-12.5-45.3 0L192 210.7 86.6 105.4c-12.5-12.5-32.8-12.5-45.3 0s-12.5 32.8 0 45.3L146.7 256 41.4 361.4c-12.5 12.5-12.5 32.8 0 45.3s32.8 12.5 45.3 0L192 301.3 297.4 406.6c12.5 12.5 32.8 12.5 45.3 0s12.5-32.8 0-45.3L237.3 256 342.6 150.6z"/>
  </symbol>

  <!-- Drink Icons -->
  <symbol id="icon-cocktail" viewBox="0 0 576 512">
    <path d="M432 240c53 0 96-43 96-96s-43-96-96-96c-35.5 0-66.6 19.3-83.2 48H296.2C316 40.1 354.1 0 432 0c79.5 0 144 64.5 144 144s-64.5 144-144 144h-42.4L321.3 512H254.7L186.4 288H144C64.5 288 0 223.5 0 144S64.5 0 144 0c77.9 0 116 40.1 135.8 96H227.2C210.6 67.3 179.5 48 144 48c-53 0-96 43-96 96s43 96 96 96h42.4l68.3 224h66.6l68.3-224H432z"/>
  </symbol>

  <symbol id="icon-beer" viewBox="0 0 512 512">
    <path d="M32 64c0-17.7 14.3-32 32-32H352c17.7 0 32 14.3 32 32V96h51.2c42.4 0 76.8 34.4 76.8 76.8V224c0 42.4-34.4 76.8-76.8 76.8H384v83.2c0 53-43 96-96 96H96c-53 0-96-43-96-96V64zM384 224h51.2c7.1 0 12.8-5.7 12.8-12.8V172.8c0-7.1-5.7-12.8-12.8-12.8H384v64zM96 96V416c0 17.7 14.3 32 32 32H288c17.7 0 32-14.3 32-32V96H96zM160 144c8.8 0 16 7.2 16 16V400c0 8.8-7.2 16-16 16s-16-7.2-16-16V160c0-8.8 7.2-16 16-16zm96 0c8.8 0 16 7.2 16 16V400c0 8.8-7.2 16-16 16s-16-7.2-16-16V160c0-8.8 7.2-16 16-16z"/>
  </symbol>

  <symbol id="icon-glass-whiskey" viewBox="0 0 384 512">
    <path d="M32 0C19.1 0 7.4 7.8 2.4 19.8s-2.2 25.7 6.9 34.9L224 269.3V512h-56c-13.3 0-24 10.7-24 24s10.7 24 24 24h80 80c13.3 0 24-10.7 24-24s-10.7-24-24-24H272V269.3L486.6 54.6c9.2-9.2 11.9-22.9 6.9-34.9S478.9 0 466.1 0H32zM70.6 64H313.4L242.7 134.7c-68.5 11.2-124.5 65.2-137.2 133.8L70.6 64z"/>
  </symbol>

  <symbol id="icon-coffee" viewBox="0 0 640 512">
    <path d="M96 64c0-17.7 14.3-32 32-32H448h64c70.7 0 128 57.3 128 128s-57.3 128-128 128H480c0 53-43 96-96 96H192c-53 0-96-43-96-96V64zM480 224h32c35.3 0 64-28.7 64-64s-28.7-64-64-64H480V224zM32 416H544c17.7 0 32 14.3 32 32s-14.3 32-32 32H32c-17.7 0-32-14.3-32-32s14.3-32 32-32z"/>
  </symbol>

  <symbol id="icon-wine-glass" viewBox="0 0 320 512">
    <path d="M64 0C47.4 0 33.5 12.8 32.1 29.3l-14 168.4c-6 72 42.5 135.2 109.9 150.6V448H80c-17.7 0-32 14.3-32 32s14.3 32 32 32h80 80c17.7 0 32-14.3 32-32s-14.3-32-32-32H192V348.4c67.4-15.4 115.9-78.6 109.9-150.6l-14-168.4C286.5 12.8 272.6 0 256 0H64zM81.9 203.1L93.4 64H226.6l11.6 139.1c3 35.8-23.6 66.9-59.4 69.9c-1.1 .1-2.1 .1-3.2 .1H144c-1.1 0-2.2 0-3.2-.1c-35.8-3-62.4-34.1-59.4-69.9z"/>
  </symbol>

  <symbol id="icon-music" viewBox="0 0 512 512">
    <path d="M499.1 6.3c8.1 6 12.9 15.6 12.9 25.7v72V368c0 44.2-43 80-96 80s-96-35.8-96-80s43-80 96-80c11.2 0 22 1.6 32 4.6V147L192 223.8V432c0 44.2-43 80-96 80s-96-35.8-96-80s43-80 96-80c11.2 0 22 1.6 32 4.6V200 128c0-14.1 9.3-26.6 22.8-30.7l320-96c9.7-2.9 20.2-1.1 28.3 5z"/>
  </symbol>

  <!-- Social Media Icons -->
  <symbol id="icon-facebook" viewBox="0 0 448 512">
    <path d="M64 32C28.7 32 0 60.7 0 96V416c0 35.3 28.7 64 64 64h98.2V334.2H109.4V256h52.8V222.3c0-87.1 39.4-127.5 125-127.5c16.2 0 44.2 3.2 55.7 6.4V172c-6-.6-16.5-1-29.6-1c-42 0-58.2 15.9-58.2 57.2V256h83.6l-14.4 78.2H255V480H384c35.3 0 64-28.7 64-64V96c0-35.3-28.7-64-64-64H64z"/>
  </symbol>

  <symbol id="icon-instagram" viewBox="0 0 448 512">
    <path d="M194.4 211.7a53.3 53.3 0 1 0 59.3 88.7 53.3 53.3 0 1 0 -59.3-88.7zm142.3-68.4c-5.2-5.2-11.5-9.3-18.4-12c-18.1-7.1-57.6-6.8-83.1-6.5c-4.1 0-7.9 .1-11.2 .1c-3.3 0-7.2 0-11.4-.1c-25.5-.3-64.8-.7-82.9 6.5c-6.9 2.7-13.1 6.8-18.4 12s-9.3 11.5-12 18.4c-7.1 18.1-6.7 57.7-6.5 83.2c0 4.1 .1 7.9 .1 11.1s0 7-.1 11.1c-.2 25.5-.6 65.1 6.5 83.2c2.7 6.9 6.8 13.1 12 18.4s11.5 9.3 18.4 12c18.1 7.1 57.6 6.8 83.1 6.5c4.1 0 7.9-.1 11.2-.1c3.3 0 7.2 0 11.4 .1c25.5 .3 64.8 .7 82.9-6.5c6.9-2.7 13.1-6.8 18.4-12s9.3-11.5 12-18.4c7.2-18 6.8-57.4 6.5-83c0-4.2-.1-8.1-.1-11.4s0-7.1 .1-11.4c.3-25.5 .7-64.9-6.5-83l0 0c-2.7-6.9-6.8-13.1-12-18.4zm-67.1 44.5A82 82 0 1 1 178.4 324.2a82 82 0 1 1 91.1-136.4zm29.2-1.3c-3.1-2.1-5.6-5.1-7.1-8.6s-1.8-7.3-1.1-11.1s2.6-7.1 5.2-9.8s6.1-4.5 9.8-5.2s7.6-.4 11.1 1.1s6.5 3.9 8.6 7s3.2 6.8 3.2 10.6c0 2.5-.5 5-1.4 7.3s-2.4 4.4-4.1 6.2s-3.9 3.2-6.2 4.2s-4.8 1.5-7.3 1.5l0 0c-3.8 0-7.5-1.1-10.6-3.2zM448 96c0-35.3-28.7-64-64-64H64C28.7 32 0 60.7 0 96V416c0 35.3 28.7 64 64 64H384c35.3 0 64-28.7 64-64V96zM357 389c-18.7 18.7-41.4 24.6-67 25.9c-26.4 1.5-105.6 1.5-132 0c-25.6-1.3-48.3-7.2-67-25.9s-24.6-41.4-25.8-67c-1.5-26.4-1.5-105.6 0-132c1.3-25.6 7.1-48.3 25.8-67s41.5-24.6 67-25.8c26.4-1.5 105.6-1.5 132 0c25.6 1.3 48.3 7.1 67 25.8s24.6 41.4 25.8 67c1.5 26.3 1.5 105.4 0 131.9c-1.3 25.6-7.1 48.3-25.8 67z"/>
  </symbol>

  <!-- Location & Contact Icons -->
  <symbol id="icon-map-marker" viewBox="0 0 384 512">
    <path d="M215.7 499.2C267 435 384 279.4 384 192C384 86 298 0 192 0S0 86 0 192c0 87.4 117 243 168.3 307.2c12.3 15.3 35.1 15.3 47.4 0zM192 128a64 64 0 1 1 0 128 64 64 0 1 1 0-128z"/>
  </symbol>

  <symbol id="icon-envelope" viewBox="0 0 512 512">
    <path d="M64 112c-8.8 0-16 7.2-16 16v22.1L220.5 291.7c20.7 17 50.4 17 71.1 0L464 150.1V128c0-8.8-7.2-16-16-16H64zM48 212.2V384c0 8.8 7.2 16 16 16H448c8.8 0 16-7.2 16-16V212.2L322 328.8c-38.4 31.5-93.7 31.5-132 0L48 212.2zM0 128C0 92.7 28.7 64 64 64H448c35.3 0 64 28.7 64 64V384c0 35.3-28.7 64-64 64H64c-35.3 0-64-28.7-64-64V128z"/>
  </symbol>

  <symbol id="icon-phone" viewBox="0 0 448 512">
    <path d="M64 32C28.7 32 0 60.7 0 96V416c0 35.3 28.7 64 64 64H384c35.3 0 64-28.7 64-64V96c0-35.3-28.7-64-64-64H64zm90.7 96.7c9.7-2.6 19.9 2.3 23.7 11.6l20 48c3.4 8.2 1 17.6-5.8 23.2L168 231.7c16.6 35.2 45.1 63.7 80.3 80.3l20.2-24.7c5.6-6.8 15-9.2 23.2-5.8l48 20c9.3 3.9 14.2 14 11.6 23.7l-12 44C336.9 378 329 384 320 384C196.3 384 96 283.7 96 160c0-9 6-16.9 14.7-19.3l44-12z"/>
  </symbol>

</svg>
